# xmcd
#
# Track frame offsets:
#	225
#	10610
#	20682
#	31544
#	42097
#	53799
#	65347
#	81872
#	102788
#	120800
#	136135
#	155563
#	171051
#	194027
#	216417
#	228561
#	239620
#	250415
#
# Disc length: 3521 seconds
#
# Revision: 1
# Processed by: cddbd v1.5.1PL0 Copyright (c) Steve Scherf et al.
# Submitted via: audiograbber 1.83.01
#
DISCID=eb0dbe12
DTITLE=Bobby Rydell - The Hits And More
DYEAR=1900
DGENRE=
TTITLE0=Wild One
TTITLE1=Kissin' Time
TTITLE2=We Got Lowe
TTITLE3=Swingin' Ssholl
TTITLE4=Volare (Ne I Blu Dipinto Di Blu)
TTITLE5=Close Your Eyes
TTITLE6=Nice Work If You Can Get It
TTITLE7=Bewitched
TTITLE8=A Day In The Life Of A Fool
TTITLE9=A Fine Romance
TTITLE10=You' re The Greatest
TTITLE11=The Song Is You
TTITLE12=Cry Me A River
TTITLE13=Heres' That Rainy Day
TTITLE14=That's All
TTITLE15=Wildwood Days
TTITLE16=The Cha-Cha-Cha
TTITLE17=Stagger Lee
EXTD=
EXTT0=
EXTT1=
EXTT2=
EXTT3=
EXTT4=
EXTT5=
EXTT6=
EXTT7=
EXTT8=
EXTT9=
EXTT10=
EXTT11=
EXTT12=
EXTT13=
EXTT14=
EXTT15=
EXTT16=
EXTT17=
PLAYORDER=
